<mxfile host="app.diagrams.net" modified="2023-05-16T11:18:53.052Z" agent="Mozilla/5.0 (Macintosh; Intel Mac OS X 10_15_7) AppleWebKit/537.36 (KHTML, like Gecko) Chrome/111.0.0.0 Safari/537.36" etag="Tw3KZWiXwDajh8HNbI1T" version="21.2.9" type="github">
  <diagram name="第 1 页" id="ENhmwCYC6Hcg_DUd-WP0">
    <mxGraphModel dx="1272" dy="821" grid="1" gridSize="10" guides="1" tooltips="1" connect="1" arrows="1" fold="1" page="1" pageScale="1" pageWidth="827" pageHeight="1169" math="0" shadow="0">
      <root>
        <mxCell id="0" />
        <mxCell id="1" parent="0" />
        <mxCell id="rxJxChNmgtlXZ_ULCe5r-4" value="" style="rounded=0;whiteSpace=wrap;html=1;fillColor=#fff2cc;strokeColor=#d6b656;strokeWidth=0;" vertex="1" parent="1">
          <mxGeometry x="120" y="150" width="1260" height="450" as="geometry" />
        </mxCell>
        <mxCell id="rxJxChNmgtlXZ_ULCe5r-5" value="" style="rounded=0;whiteSpace=wrap;html=1;fillColor=#dae8fc;strokeColor=#6c8ebf;strokeWidth=0;" vertex="1" parent="1">
          <mxGeometry x="140" y="451" width="1180" height="90" as="geometry" />
        </mxCell>
        <mxCell id="rxJxChNmgtlXZ_ULCe5r-6" style="edgeStyle=elbowEdgeStyle;rounded=0;orthogonalLoop=1;jettySize=auto;html=1;elbow=vertical;curved=0;dashed=1;" edge="1" parent="1">
          <mxGeometry relative="1" as="geometry">
            <mxPoint x="160" y="173" as="sourcePoint" />
            <mxPoint x="395" y="175.66666666666663" as="targetPoint" />
          </mxGeometry>
        </mxCell>
        <mxCell id="rxJxChNmgtlXZ_ULCe5r-7" value="添加好友关系事件回调、&lt;br&gt;&lt;div style=&quot;&quot;&gt;外部联系人免验证添加成员&lt;/div&gt;&lt;div style=&quot;&quot;&gt;事件回调&lt;/div&gt;" style="edgeLabel;html=1;align=center;verticalAlign=middle;resizable=0;points=[];" vertex="1" connectable="0" parent="rxJxChNmgtlXZ_ULCe5r-6">
          <mxGeometry x="-0.1893" y="3" relative="1" as="geometry">
            <mxPoint x="26" y="1" as="offset" />
          </mxGeometry>
        </mxCell>
        <mxCell id="rxJxChNmgtlXZ_ULCe5r-8" style="edgeStyle=elbowEdgeStyle;rounded=0;orthogonalLoop=1;jettySize=auto;html=1;elbow=vertical;curved=0;" edge="1" parent="1">
          <mxGeometry relative="1" as="geometry">
            <mxPoint x="405" y="184" as="sourcePoint" />
            <mxPoint x="625" y="184" as="targetPoint" />
            <Array as="points">
              <mxPoint x="490" y="184" />
              <mxPoint x="560" y="194" />
            </Array>
          </mxGeometry>
        </mxCell>
        <mxCell id="rxJxChNmgtlXZ_ULCe5r-9" value="处理事件" style="edgeLabel;html=1;align=center;verticalAlign=middle;resizable=0;points=[];" vertex="1" connectable="0" parent="rxJxChNmgtlXZ_ULCe5r-8">
          <mxGeometry x="0.0916" y="1" relative="1" as="geometry">
            <mxPoint as="offset" />
          </mxGeometry>
        </mxCell>
        <mxCell id="rxJxChNmgtlXZ_ULCe5r-10" value="执行同步任务" style="edgeStyle=elbowEdgeStyle;rounded=0;orthogonalLoop=1;jettySize=auto;html=1;elbow=horizontal;curved=0;dashed=1;" edge="1" parent="1" source="rxJxChNmgtlXZ_ULCe5r-11" target="rxJxChNmgtlXZ_ULCe5r-78">
          <mxGeometry relative="1" as="geometry">
            <Array as="points">
              <mxPoint x="780" y="320" />
            </Array>
          </mxGeometry>
        </mxCell>
        <mxCell id="rxJxChNmgtlXZ_ULCe5r-11" value="(crm)任务调度器" style="shape=umlLifeline;perimeter=lifelinePerimeter;whiteSpace=wrap;html=1;container=1;dropTarget=0;collapsible=0;recursiveResize=0;outlineConnect=0;portConstraint=eastwest;newEdgeStyle={&quot;edgeStyle&quot;:&quot;elbowEdgeStyle&quot;,&quot;elbow&quot;:&quot;vertical&quot;,&quot;curved&quot;:0,&quot;rounded&quot;:0};fillColor=#d5e8d4;strokeColor=#82b366;" vertex="1" parent="1">
          <mxGeometry x="850" y="80" width="130" height="540" as="geometry" />
        </mxCell>
        <mxCell id="rxJxChNmgtlXZ_ULCe5r-12" value="" style="rounded=0;whiteSpace=wrap;html=1;fillColor=#f5f5f5;strokeColor=#666666;fontColor=#333333;" vertex="1" parent="rxJxChNmgtlXZ_ULCe5r-11">
          <mxGeometry x="-730" y="1600" width="1273" height="250" as="geometry" />
        </mxCell>
        <mxCell id="rxJxChNmgtlXZ_ULCe5r-13" value="" style="html=1;points=[];perimeter=orthogonalPerimeter;outlineConnect=0;targetShapes=umlLifeline;portConstraint=eastwest;newEdgeStyle={&quot;edgeStyle&quot;:&quot;elbowEdgeStyle&quot;,&quot;elbow&quot;:&quot;vertical&quot;,&quot;curved&quot;:0,&quot;rounded&quot;:0};" vertex="1" parent="rxJxChNmgtlXZ_ULCe5r-11">
          <mxGeometry x="-693" y="1700" width="10" height="50" as="geometry" />
        </mxCell>
        <mxCell id="rxJxChNmgtlXZ_ULCe5r-14" value="" style="html=1;points=[];perimeter=orthogonalPerimeter;outlineConnect=0;targetShapes=umlLifeline;portConstraint=eastwest;newEdgeStyle={&quot;edgeStyle&quot;:&quot;elbowEdgeStyle&quot;,&quot;elbow&quot;:&quot;vertical&quot;,&quot;curved&quot;:0,&quot;rounded&quot;:0};" vertex="1" parent="rxJxChNmgtlXZ_ULCe5r-11">
          <mxGeometry x="-202" y="1640" width="10" height="170" as="geometry" />
        </mxCell>
        <mxCell id="rxJxChNmgtlXZ_ULCe5r-15" value="" style="html=1;points=[];perimeter=orthogonalPerimeter;outlineConnect=0;targetShapes=umlLifeline;portConstraint=eastwest;newEdgeStyle={&quot;edgeStyle&quot;:&quot;elbowEdgeStyle&quot;,&quot;elbow&quot;:&quot;vertical&quot;,&quot;curved&quot;:0,&quot;rounded&quot;:0};" vertex="1" parent="rxJxChNmgtlXZ_ULCe5r-11">
          <mxGeometry x="-197" y="1680" width="10" height="100" as="geometry" />
        </mxCell>
        <mxCell id="rxJxChNmgtlXZ_ULCe5r-16" value="查询存量历史客户数据、&lt;br&gt;查询客户关联会员信息" style="html=1;align=left;spacingLeft=2;endArrow=block;rounded=0;edgeStyle=orthogonalEdgeStyle;curved=0;rounded=0;" edge="1" parent="rxJxChNmgtlXZ_ULCe5r-11" target="rxJxChNmgtlXZ_ULCe5r-15">
          <mxGeometry relative="1" as="geometry">
            <mxPoint x="-192" y="1660" as="sourcePoint" />
            <Array as="points">
              <mxPoint x="-162" y="1690" />
            </Array>
          </mxGeometry>
        </mxCell>
        <mxCell id="rxJxChNmgtlXZ_ULCe5r-17" style="edgeStyle=elbowEdgeStyle;rounded=0;orthogonalLoop=1;jettySize=auto;html=1;elbow=vertical;curved=0;" edge="1" parent="rxJxChNmgtlXZ_ULCe5r-11" target="rxJxChNmgtlXZ_ULCe5r-103">
          <mxGeometry relative="1" as="geometry">
            <mxPoint x="-194.5" y="1710" as="sourcePoint" />
            <mxPoint x="-659.5" y="1710" as="targetPoint" />
            <Array as="points">
              <mxPoint x="-244.5" y="1710" />
              <mxPoint x="-274.5" y="1700" />
              <mxPoint x="-364.5" y="1710" />
            </Array>
          </mxGeometry>
        </mxCell>
        <mxCell id="rxJxChNmgtlXZ_ULCe5r-18" value="查询企微接口，获取客户信息(手机号)、会员详细信息" style="edgeLabel;html=1;align=center;verticalAlign=middle;resizable=0;points=[];" vertex="1" connectable="0" parent="rxJxChNmgtlXZ_ULCe5r-17">
          <mxGeometry x="0.1613" relative="1" as="geometry">
            <mxPoint as="offset" />
          </mxGeometry>
        </mxCell>
        <mxCell id="rxJxChNmgtlXZ_ULCe5r-19" style="edgeStyle=elbowEdgeStyle;rounded=0;orthogonalLoop=1;jettySize=auto;html=1;elbow=vertical;curved=0;dashed=1;" edge="1" parent="rxJxChNmgtlXZ_ULCe5r-11" source="rxJxChNmgtlXZ_ULCe5r-103">
          <mxGeometry relative="1" as="geometry">
            <mxPoint x="-659.5" y="1739.17" as="sourcePoint" />
            <mxPoint x="-194.5" y="1739.17" as="targetPoint" />
            <Array as="points">
              <mxPoint x="-264.5" y="1739.17" />
            </Array>
          </mxGeometry>
        </mxCell>
        <mxCell id="rxJxChNmgtlXZ_ULCe5r-20" value="返回" style="edgeLabel;html=1;align=center;verticalAlign=middle;resizable=0;points=[];" vertex="1" connectable="0" parent="rxJxChNmgtlXZ_ULCe5r-19">
          <mxGeometry x="-0.147" relative="1" as="geometry">
            <mxPoint as="offset" />
          </mxGeometry>
        </mxCell>
        <mxCell id="rxJxChNmgtlXZ_ULCe5r-21" style="edgeStyle=elbowEdgeStyle;rounded=0;orthogonalLoop=1;jettySize=auto;html=1;elbow=vertical;curved=0;dashed=1;" edge="1" parent="1" source="rxJxChNmgtlXZ_ULCe5r-75" target="rxJxChNmgtlXZ_ULCe5r-87">
          <mxGeometry relative="1" as="geometry">
            <Array as="points">
              <mxPoint x="500" y="270" />
            </Array>
          </mxGeometry>
        </mxCell>
        <mxCell id="rxJxChNmgtlXZ_ULCe5r-22" style="edgeStyle=elbowEdgeStyle;rounded=0;orthogonalLoop=1;jettySize=auto;html=1;elbow=horizontal;curved=0;dashed=1;" edge="1" parent="1">
          <mxGeometry relative="1" as="geometry">
            <mxPoint x="635" y="561" as="sourcePoint" />
            <mxPoint x="876.5000000000005" y="561" as="targetPoint" />
            <Array as="points">
              <mxPoint x="800" y="561" />
            </Array>
          </mxGeometry>
        </mxCell>
        <mxCell id="rxJxChNmgtlXZ_ULCe5r-23" value="任务执行结束" style="edgeLabel;html=1;align=center;verticalAlign=middle;resizable=0;points=[];" vertex="1" connectable="0" parent="rxJxChNmgtlXZ_ULCe5r-22">
          <mxGeometry x="-0.0502" y="-1" relative="1" as="geometry">
            <mxPoint x="-1" as="offset" />
          </mxGeometry>
        </mxCell>
        <mxCell id="rxJxChNmgtlXZ_ULCe5r-24" value="&lt;font style=&quot;font-size: 15px;&quot;&gt;新&lt;br&gt;增&lt;br&gt;事&lt;br&gt;件&lt;br style=&quot;font-size: 15px;&quot;&gt;场&lt;br&gt;景&lt;br style=&quot;font-size: 15px;&quot;&gt;&lt;/font&gt;" style="text;html=1;align=center;verticalAlign=middle;resizable=0;points=[];autosize=1;strokeColor=none;fillColor=none;fontStyle=0;fontSize=15;" vertex="1" parent="1">
          <mxGeometry x="50" y="300" width="40" height="120" as="geometry" />
        </mxCell>
        <mxCell id="rxJxChNmgtlXZ_ULCe5r-25" style="edgeStyle=elbowEdgeStyle;rounded=0;orthogonalLoop=1;jettySize=auto;html=1;elbow=vertical;curved=0;" edge="1" parent="1" target="rxJxChNmgtlXZ_ULCe5r-104">
          <mxGeometry relative="1" as="geometry">
            <mxPoint x="630" y="471" as="sourcePoint" />
            <Array as="points">
              <mxPoint x="580" y="471" />
              <mxPoint x="550" y="461" />
              <mxPoint x="460" y="471" />
            </Array>
          </mxGeometry>
        </mxCell>
        <mxCell id="rxJxChNmgtlXZ_ULCe5r-26" value="查询企微接口，获取客户信息(手机号)、会员详细信息" style="edgeLabel;html=1;align=center;verticalAlign=middle;resizable=0;points=[];" vertex="1" connectable="0" parent="rxJxChNmgtlXZ_ULCe5r-25">
          <mxGeometry x="0.1613" relative="1" as="geometry">
            <mxPoint as="offset" />
          </mxGeometry>
        </mxCell>
        <mxCell id="rxJxChNmgtlXZ_ULCe5r-27" style="edgeStyle=elbowEdgeStyle;rounded=0;orthogonalLoop=1;jettySize=auto;html=1;elbow=vertical;curved=0;dashed=1;" edge="1" parent="1" source="rxJxChNmgtlXZ_ULCe5r-104">
          <mxGeometry relative="1" as="geometry">
            <mxPoint x="630" y="521" as="targetPoint" />
            <Array as="points">
              <mxPoint x="560" y="521" />
            </Array>
          </mxGeometry>
        </mxCell>
        <mxCell id="rxJxChNmgtlXZ_ULCe5r-28" value="返回" style="edgeLabel;html=1;align=center;verticalAlign=middle;resizable=0;points=[];" vertex="1" connectable="0" parent="rxJxChNmgtlXZ_ULCe5r-27">
          <mxGeometry x="-0.147" relative="1" as="geometry">
            <mxPoint as="offset" />
          </mxGeometry>
        </mxCell>
        <mxCell id="rxJxChNmgtlXZ_ULCe5r-29" style="edgeStyle=elbowEdgeStyle;rounded=0;orthogonalLoop=1;jettySize=auto;html=1;elbow=vertical;curved=0;" edge="1" parent="1" target="rxJxChNmgtlXZ_ULCe5r-99">
          <mxGeometry relative="1" as="geometry">
            <mxPoint x="640" y="481" as="sourcePoint" />
            <mxPoint x="1190" y="481" as="targetPoint" />
            <Array as="points">
              <mxPoint x="1100" y="481" />
            </Array>
          </mxGeometry>
        </mxCell>
        <mxCell id="rxJxChNmgtlXZ_ULCe5r-30" value="同步客户信息到用户中心" style="edgeLabel;html=1;align=center;verticalAlign=middle;resizable=0;points=[];" vertex="1" connectable="0" parent="rxJxChNmgtlXZ_ULCe5r-29">
          <mxGeometry x="-0.0277" y="4" relative="1" as="geometry">
            <mxPoint as="offset" />
          </mxGeometry>
        </mxCell>
        <mxCell id="rxJxChNmgtlXZ_ULCe5r-31" style="edgeStyle=elbowEdgeStyle;rounded=0;orthogonalLoop=1;jettySize=auto;html=1;elbow=vertical;curved=0;dashed=1;" edge="1" parent="1" source="rxJxChNmgtlXZ_ULCe5r-99">
          <mxGeometry relative="1" as="geometry">
            <mxPoint x="1295" y="510.17" as="sourcePoint" />
            <mxPoint x="640" y="510.17" as="targetPoint" />
            <Array as="points">
              <mxPoint x="1020" y="510.17" />
            </Array>
          </mxGeometry>
        </mxCell>
        <mxCell id="rxJxChNmgtlXZ_ULCe5r-32" value="返回" style="edgeLabel;html=1;align=center;verticalAlign=middle;resizable=0;points=[];" vertex="1" connectable="0" parent="rxJxChNmgtlXZ_ULCe5r-31">
          <mxGeometry x="-0.0159" y="-1" relative="1" as="geometry">
            <mxPoint x="1" as="offset" />
          </mxGeometry>
        </mxCell>
        <mxCell id="rxJxChNmgtlXZ_ULCe5r-33" value="loop" style="text;html=1;strokeColor=none;fillColor=none;align=center;verticalAlign=middle;whiteSpace=wrap;rounded=0;" vertex="1" parent="1">
          <mxGeometry x="630" y="360" width="60" height="30" as="geometry" />
        </mxCell>
        <mxCell id="rxJxChNmgtlXZ_ULCe5r-74" value="crm" style="shape=umlLifeline;perimeter=lifelinePerimeter;whiteSpace=wrap;html=1;container=1;dropTarget=0;collapsible=0;recursiveResize=0;outlineConnect=0;portConstraint=eastwest;newEdgeStyle={&quot;edgeStyle&quot;:&quot;elbowEdgeStyle&quot;,&quot;elbow&quot;:&quot;vertical&quot;,&quot;curved&quot;:0,&quot;rounded&quot;:0};fillColor=#d5e8d4;strokeColor=#82b366;" vertex="1" parent="1">
          <mxGeometry x="580" y="80" width="100" height="1910" as="geometry" />
        </mxCell>
        <mxCell id="rxJxChNmgtlXZ_ULCe5r-75" value="" style="html=1;points=[];perimeter=orthogonalPerimeter;outlineConnect=0;targetShapes=umlLifeline;portConstraint=eastwest;newEdgeStyle={&quot;edgeStyle&quot;:&quot;elbowEdgeStyle&quot;,&quot;elbow&quot;:&quot;vertical&quot;,&quot;curved&quot;:0,&quot;rounded&quot;:0};" vertex="1" parent="rxJxChNmgtlXZ_ULCe5r-74">
          <mxGeometry x="45" y="100" width="10" height="100" as="geometry" />
        </mxCell>
        <mxCell id="rxJxChNmgtlXZ_ULCe5r-76" value="" style="html=1;points=[];perimeter=orthogonalPerimeter;outlineConnect=0;targetShapes=umlLifeline;portConstraint=eastwest;newEdgeStyle={&quot;edgeStyle&quot;:&quot;elbowEdgeStyle&quot;,&quot;elbow&quot;:&quot;vertical&quot;,&quot;curved&quot;:0,&quot;rounded&quot;:0};" vertex="1" parent="rxJxChNmgtlXZ_ULCe5r-74">
          <mxGeometry x="50" y="140" width="10" height="40" as="geometry" />
        </mxCell>
        <mxCell id="rxJxChNmgtlXZ_ULCe5r-77" value="新增同步日志&lt;br style=&quot;border-color: var(--border-color);&quot;&gt;标记为初始化" style="html=1;align=left;spacingLeft=2;endArrow=block;rounded=0;edgeStyle=orthogonalEdgeStyle;curved=0;rounded=0;" edge="1" parent="rxJxChNmgtlXZ_ULCe5r-74" target="rxJxChNmgtlXZ_ULCe5r-76">
          <mxGeometry relative="1" as="geometry">
            <mxPoint x="55" y="120" as="sourcePoint" />
            <Array as="points">
              <mxPoint x="85" y="150" />
            </Array>
          </mxGeometry>
        </mxCell>
        <mxCell id="rxJxChNmgtlXZ_ULCe5r-78" value="" style="html=1;points=[];perimeter=orthogonalPerimeter;outlineConnect=0;targetShapes=umlLifeline;portConstraint=eastwest;newEdgeStyle={&quot;edgeStyle&quot;:&quot;elbowEdgeStyle&quot;,&quot;elbow&quot;:&quot;vertical&quot;,&quot;curved&quot;:0,&quot;rounded&quot;:0};" vertex="1" parent="rxJxChNmgtlXZ_ULCe5r-74">
          <mxGeometry x="45" y="230" width="10" height="260" as="geometry" />
        </mxCell>
        <mxCell id="rxJxChNmgtlXZ_ULCe5r-79" value="" style="html=1;points=[];perimeter=orthogonalPerimeter;outlineConnect=0;targetShapes=umlLifeline;portConstraint=eastwest;newEdgeStyle={&quot;edgeStyle&quot;:&quot;elbowEdgeStyle&quot;,&quot;elbow&quot;:&quot;vertical&quot;,&quot;curved&quot;:0,&quot;rounded&quot;:0};" vertex="1" parent="rxJxChNmgtlXZ_ULCe5r-74">
          <mxGeometry x="50" y="280" width="10" height="40" as="geometry" />
        </mxCell>
        <mxCell id="rxJxChNmgtlXZ_ULCe5r-80" value="" style="html=1;align=left;spacingLeft=2;endArrow=block;rounded=0;edgeStyle=orthogonalEdgeStyle;curved=0;rounded=0;" edge="1" parent="rxJxChNmgtlXZ_ULCe5r-74" target="rxJxChNmgtlXZ_ULCe5r-79">
          <mxGeometry relative="1" as="geometry">
            <mxPoint x="55" y="250" as="sourcePoint" />
            <Array as="points">
              <mxPoint x="85" y="280" />
            </Array>
          </mxGeometry>
        </mxCell>
        <mxCell id="rxJxChNmgtlXZ_ULCe5r-81" value="查询所有状态为&lt;br style=&quot;border-color: var(--border-color); text-align: left;&quot;&gt;&lt;span style=&quot;text-align: left;&quot;&gt;初始化的同步日志&lt;/span&gt;" style="edgeLabel;html=1;align=center;verticalAlign=middle;resizable=0;points=[];" vertex="1" connectable="0" parent="rxJxChNmgtlXZ_ULCe5r-80">
          <mxGeometry x="0.1471" relative="1" as="geometry">
            <mxPoint x="55" as="offset" />
          </mxGeometry>
        </mxCell>
        <mxCell id="rxJxChNmgtlXZ_ULCe5r-82" value="" style="html=1;points=[];perimeter=orthogonalPerimeter;outlineConnect=0;targetShapes=umlLifeline;portConstraint=eastwest;newEdgeStyle={&quot;edgeStyle&quot;:&quot;elbowEdgeStyle&quot;,&quot;elbow&quot;:&quot;vertical&quot;,&quot;curved&quot;:0,&quot;rounded&quot;:0};" vertex="1" parent="rxJxChNmgtlXZ_ULCe5r-74">
          <mxGeometry x="50" y="341" width="10" height="109" as="geometry" />
        </mxCell>
        <mxCell id="rxJxChNmgtlXZ_ULCe5r-83" value="" style="html=1;align=left;spacingLeft=2;endArrow=block;rounded=0;edgeStyle=orthogonalEdgeStyle;curved=0;rounded=0;" edge="1" parent="rxJxChNmgtlXZ_ULCe5r-74" source="rxJxChNmgtlXZ_ULCe5r-79" target="rxJxChNmgtlXZ_ULCe5r-82">
          <mxGeometry relative="1" as="geometry">
            <mxPoint x="55" y="321" as="sourcePoint" />
            <Array as="points">
              <mxPoint x="85" y="310" />
              <mxPoint x="85" y="360" />
            </Array>
          </mxGeometry>
        </mxCell>
        <mxCell id="rxJxChNmgtlXZ_ULCe5r-84" value="客户信息入库&lt;br&gt;客户员工关系入库" style="edgeLabel;html=1;align=center;verticalAlign=middle;resizable=0;points=[];" vertex="1" connectable="0" parent="rxJxChNmgtlXZ_ULCe5r-83">
          <mxGeometry x="-0.0659" y="1" relative="1" as="geometry">
            <mxPoint x="54" as="offset" />
          </mxGeometry>
        </mxCell>
        <mxCell id="rxJxChNmgtlXZ_ULCe5r-86" value="wshop" style="shape=umlLifeline;perimeter=lifelinePerimeter;whiteSpace=wrap;html=1;container=1;dropTarget=0;collapsible=0;recursiveResize=0;outlineConnect=0;portConstraint=eastwest;newEdgeStyle={&quot;edgeStyle&quot;:&quot;elbowEdgeStyle&quot;,&quot;elbow&quot;:&quot;vertical&quot;,&quot;curved&quot;:0,&quot;rounded&quot;:0};fillColor=#d5e8d4;strokeColor=#82b366;" vertex="1" parent="1">
          <mxGeometry x="350" y="80" width="100" height="1900" as="geometry" />
        </mxCell>
        <mxCell id="rxJxChNmgtlXZ_ULCe5r-87" value="" style="html=1;points=[];perimeter=orthogonalPerimeter;outlineConnect=0;targetShapes=umlLifeline;portConstraint=eastwest;newEdgeStyle={&quot;edgeStyle&quot;:&quot;elbowEdgeStyle&quot;,&quot;elbow&quot;:&quot;vertical&quot;,&quot;curved&quot;:0,&quot;rounded&quot;:0};" vertex="1" parent="rxJxChNmgtlXZ_ULCe5r-86">
          <mxGeometry x="45" y="87" width="10" height="120" as="geometry" />
        </mxCell>
        <mxCell id="rxJxChNmgtlXZ_ULCe5r-88" style="edgeStyle=elbowEdgeStyle;rounded=0;orthogonalLoop=1;jettySize=auto;html=1;elbow=vertical;curved=0;" edge="1" parent="1" source="rxJxChNmgtlXZ_ULCe5r-15" target="rxJxChNmgtlXZ_ULCe5r-101">
          <mxGeometry relative="1" as="geometry">
            <Array as="points">
              <mxPoint x="903" y="1830" />
              <mxPoint x="1123" y="1790" />
            </Array>
          </mxGeometry>
        </mxCell>
        <mxCell id="rxJxChNmgtlXZ_ULCe5r-89" value="同步客户信息到用户中心" style="edgeLabel;html=1;align=center;verticalAlign=middle;resizable=0;points=[];" vertex="1" connectable="0" parent="rxJxChNmgtlXZ_ULCe5r-88">
          <mxGeometry x="-0.0277" y="4" relative="1" as="geometry">
            <mxPoint as="offset" />
          </mxGeometry>
        </mxCell>
        <mxCell id="rxJxChNmgtlXZ_ULCe5r-90" value="loop" style="edgeLabel;html=1;align=center;verticalAlign=middle;resizable=0;points=[];" vertex="1" connectable="0" parent="rxJxChNmgtlXZ_ULCe5r-88">
          <mxGeometry x="-0.8739" relative="1" as="geometry">
            <mxPoint x="-82" y="-50" as="offset" />
          </mxGeometry>
        </mxCell>
        <mxCell id="rxJxChNmgtlXZ_ULCe5r-91" style="edgeStyle=elbowEdgeStyle;rounded=0;orthogonalLoop=1;jettySize=auto;html=1;elbow=vertical;curved=0;dashed=1;" edge="1" parent="1" source="rxJxChNmgtlXZ_ULCe5r-101" target="rxJxChNmgtlXZ_ULCe5r-15">
          <mxGeometry relative="1" as="geometry">
            <Array as="points">
              <mxPoint x="1153" y="1850" />
              <mxPoint x="1043" y="1820" />
            </Array>
          </mxGeometry>
        </mxCell>
        <mxCell id="rxJxChNmgtlXZ_ULCe5r-92" value="返回" style="edgeLabel;html=1;align=center;verticalAlign=middle;resizable=0;points=[];" vertex="1" connectable="0" parent="rxJxChNmgtlXZ_ULCe5r-91">
          <mxGeometry x="-0.0159" y="-1" relative="1" as="geometry">
            <mxPoint x="1" as="offset" />
          </mxGeometry>
        </mxCell>
        <mxCell id="rxJxChNmgtlXZ_ULCe5r-93" style="edgeStyle=elbowEdgeStyle;rounded=0;orthogonalLoop=1;jettySize=auto;html=1;elbow=vertical;curved=0;dashed=1;" edge="1" parent="1" source="rxJxChNmgtlXZ_ULCe5r-14" target="rxJxChNmgtlXZ_ULCe5r-86">
          <mxGeometry relative="1" as="geometry">
            <mxPoint x="421.83333333333326" y="1880.0000000000002" as="targetPoint" />
            <Array as="points">
              <mxPoint x="583" y="1880" />
            </Array>
          </mxGeometry>
        </mxCell>
        <mxCell id="rxJxChNmgtlXZ_ULCe5r-94" value="任务执行结束" style="edgeLabel;html=1;align=center;verticalAlign=middle;resizable=0;points=[];" vertex="1" connectable="0" parent="rxJxChNmgtlXZ_ULCe5r-93">
          <mxGeometry x="0.1349" y="-5" relative="1" as="geometry">
            <mxPoint x="23" y="5" as="offset" />
          </mxGeometry>
        </mxCell>
        <mxCell id="rxJxChNmgtlXZ_ULCe5r-95" style="edgeStyle=elbowEdgeStyle;rounded=0;orthogonalLoop=1;jettySize=auto;html=1;elbow=vertical;curved=0;" edge="1" parent="1" source="rxJxChNmgtlXZ_ULCe5r-86" target="rxJxChNmgtlXZ_ULCe5r-14">
          <mxGeometry relative="1" as="geometry">
            <mxPoint x="410" y="1730" as="sourcePoint" />
            <Array as="points">
              <mxPoint x="593" y="1730" />
            </Array>
          </mxGeometry>
        </mxCell>
        <mxCell id="rxJxChNmgtlXZ_ULCe5r-96" value="执行存量同步任务" style="edgeLabel;html=1;align=center;verticalAlign=middle;resizable=0;points=[];" vertex="1" connectable="0" parent="rxJxChNmgtlXZ_ULCe5r-95">
          <mxGeometry x="0.0692" y="-1" relative="1" as="geometry">
            <mxPoint x="-1" as="offset" />
          </mxGeometry>
        </mxCell>
        <mxCell id="rxJxChNmgtlXZ_ULCe5r-97" value="&lt;font style=&quot;font-size: 15px;&quot;&gt;存&lt;br style=&quot;font-size: 15px;&quot;&gt;量&lt;br style=&quot;font-size: 15px;&quot;&gt;同&lt;br style=&quot;font-size: 15px;&quot;&gt;步&lt;br style=&quot;font-size: 15px;&quot;&gt;&lt;/font&gt;" style="text;html=1;align=center;verticalAlign=middle;resizable=0;points=[];autosize=1;strokeColor=none;fillColor=none;fontSize=15;" vertex="1" parent="1">
          <mxGeometry x="50" y="1760.5" width="40" height="90" as="geometry" />
        </mxCell>
        <mxCell id="rxJxChNmgtlXZ_ULCe5r-98" value="用户中心" style="shape=umlLifeline;perimeter=lifelinePerimeter;whiteSpace=wrap;html=1;container=1;dropTarget=0;collapsible=0;recursiveResize=0;outlineConnect=0;portConstraint=eastwest;newEdgeStyle={&quot;edgeStyle&quot;:&quot;elbowEdgeStyle&quot;,&quot;elbow&quot;:&quot;vertical&quot;,&quot;curved&quot;:0,&quot;rounded&quot;:0};" vertex="1" parent="1">
          <mxGeometry x="1140" y="80" width="100" height="1900" as="geometry" />
        </mxCell>
        <mxCell id="rxJxChNmgtlXZ_ULCe5r-99" value="" style="html=1;points=[];perimeter=orthogonalPerimeter;outlineConnect=0;targetShapes=umlLifeline;portConstraint=eastwest;newEdgeStyle={&quot;edgeStyle&quot;:&quot;elbowEdgeStyle&quot;,&quot;elbow&quot;:&quot;vertical&quot;,&quot;curved&quot;:0,&quot;rounded&quot;:0};" vertex="1" parent="rxJxChNmgtlXZ_ULCe5r-98">
          <mxGeometry x="45" y="391" width="10" height="50" as="geometry" />
        </mxCell>
        <mxCell id="rxJxChNmgtlXZ_ULCe5r-101" value="" style="html=1;points=[];perimeter=orthogonalPerimeter;outlineConnect=0;targetShapes=umlLifeline;portConstraint=eastwest;newEdgeStyle={&quot;edgeStyle&quot;:&quot;elbowEdgeStyle&quot;,&quot;elbow&quot;:&quot;vertical&quot;,&quot;curved&quot;:0,&quot;rounded&quot;:0};" vertex="1" parent="rxJxChNmgtlXZ_ULCe5r-98">
          <mxGeometry x="45" y="1740" width="10" height="40" as="geometry" />
        </mxCell>
        <mxCell id="rxJxChNmgtlXZ_ULCe5r-103" value="企微" style="shape=umlLifeline;perimeter=lifelinePerimeter;whiteSpace=wrap;html=1;container=1;dropTarget=0;collapsible=0;recursiveResize=0;outlineConnect=0;portConstraint=eastwest;newEdgeStyle={&quot;edgeStyle&quot;:&quot;elbowEdgeStyle&quot;,&quot;elbow&quot;:&quot;vertical&quot;,&quot;curved&quot;:0,&quot;rounded&quot;:0};" vertex="1" parent="1">
          <mxGeometry x="110" y="80" width="100" height="1900" as="geometry" />
        </mxCell>
        <mxCell id="rxJxChNmgtlXZ_ULCe5r-104" value="" style="html=1;points=[];perimeter=orthogonalPerimeter;outlineConnect=0;targetShapes=umlLifeline;portConstraint=eastwest;newEdgeStyle={&quot;edgeStyle&quot;:&quot;elbowEdgeStyle&quot;,&quot;elbow&quot;:&quot;vertical&quot;,&quot;curved&quot;:0,&quot;rounded&quot;:0};" vertex="1" parent="rxJxChNmgtlXZ_ULCe5r-103">
          <mxGeometry x="45" y="381" width="10" height="64" as="geometry" />
        </mxCell>
      </root>
    </mxGraphModel>
  </diagram>
</mxfile>
